<?xml version="1.0" encoding="UTF-8"?>
 <!DOCTYPE svg PUBLIC "-//W3C//DTD SVG 1.1//EN"
   "http://www.w3.org/Graphics/SVG/1.1/DTD/svg11.dtd">
 <svg xmlns="http://www.w3.org/2000/svg" version="1.1"
   xmlns:xlink="http://www.w3.org/1999/xlink" width="193.53741" height="59.442749">
  <defs>
    <linearGradient id="linearGradient3238">
      <stop id="stop3240" style="stop-color:#6a93c5;stop-opacity:0.47843099" offset="0" />
      <stop id="stop3242" style="stop-color:#ffffff;stop-opacity:0.625" offset="1" />
    </linearGradient>
    <linearGradient x1="59.171295" y1="-11.099194" x2="62.525135" y2="-11.099194" id="linearGradient3345" xlink:href="#linearGradient3238" gradientUnits="userSpaceOnUse" gradientTransform="matrix(2.84925,0,0,2.84925,1.4246247,55.791886)" />
    <linearGradient x1="0.71867973" y1="9.0637655" x2="7.027091" y2="9.0637655" id="linearGradient3416" xlink:href="#linearGradient3238" gradientUnits="userSpaceOnUse" gradientTransform="matrix(2.84925,0,0,2.84925,1.4246247,-1.19306)" />
    <linearGradient x1="8.0507908" y1="9.0637655" x2="14.359202" y2="9.0637655" id="linearGradient3421" xlink:href="#linearGradient3238" gradientUnits="userSpaceOnUse" gradientTransform="matrix(2.84925,0,0,2.84925,1.4246247,-1.19306)" />
    <linearGradient x1="15.382902" y1="9.0637655" x2="21.691313" y2="9.0637655" id="linearGradient3425" xlink:href="#linearGradient3238" gradientUnits="userSpaceOnUse" gradientTransform="matrix(2.84925,0,0,2.84925,1.4246247,-1.19306)" />
    <linearGradient x1="22.715012" y1="9.0637655" x2="29.023422" y2="9.0637655" id="linearGradient3429" xlink:href="#linearGradient3238" gradientUnits="userSpaceOnUse" gradientTransform="matrix(2.84925,0,0,2.84925,1.4246247,-1.19306)" />
    <linearGradient x1="0.71867973" y1="9.0637655" x2="7.027091" y2="9.0637655" id="linearGradient3443" xlink:href="#linearGradient3238" gradientUnits="userSpaceOnUse" />
    <linearGradient x1="8.0507908" y1="9.0637655" x2="14.359202" y2="9.0637655" id="linearGradient3445" xlink:href="#linearGradient3238" gradientUnits="userSpaceOnUse" />
    <linearGradient x1="15.382902" y1="9.0637655" x2="21.691313" y2="9.0637655" id="linearGradient3447" xlink:href="#linearGradient3238" gradientUnits="userSpaceOnUse" />
    <linearGradient x1="15.382902" y1="9.0637655" x2="21.691313" y2="9.0637655" id="linearGradient50" xlink:href="#linearGradient3238" gradientUnits="userSpaceOnUse" gradientTransform="matrix(2.84925,0,0,2.84925,93.343225,-1.19306)" />
    <linearGradient x1="8.0507908" y1="9.0637655" x2="14.359202" y2="9.0637655" id="linearGradient53" xlink:href="#linearGradient3238" gradientUnits="userSpaceOnUse" gradientTransform="matrix(2.84925,0,0,2.84925,93.343225,-1.19306)" />
    <linearGradient x1="0.71867973" y1="9.0637655" x2="7.027091" y2="9.0637655" id="linearGradient56" xlink:href="#linearGradient3238" gradientUnits="userSpaceOnUse" gradientTransform="matrix(2.84925,0,0,2.84925,93.343225,-1.19306)" />
  </defs>
  <rect width="11.831129" height="4.0953908" ry="0" x="83.787483" y="44.758244" />
  <rect width="14.788912" height="3.1853039" ry="0" x="142.71561" y="12.677682" />
  <path d="M 7.03,20.8022 A 2.56,2.56 0 1 1 1.92,20.8022 2.56,2.56 0 1 1 7.03,20.8022 z" transform="matrix(2.84925,0,0,2.84925,-1.3056391,-7.1086257)" />
  <path d="M 7.03,20.8022 A 2.56,2.56 0 1 1 1.92,20.8022 2.56,2.56 0 1 1 7.03,20.8022 z" transform="matrix(2.84925,0,0,2.84925,13.483288,-7.1086257)" />
  <path d="M 7.03,20.8022 A 2.56,2.56 0 1 1 1.92,20.8022 2.56,2.56 0 1 1 7.03,20.8022 z" transform="matrix(2.84925,0,0,2.84925,49.204364,-7.1086257)" />
  <path d="M 7.03,20.8022 A 2.56,2.56 0 1 1 1.92,20.8022 2.56,2.56 0 1 1 7.03,20.8022 z" transform="matrix(2.84925,0,0,2.84925,63.993111,-7.1086257)" />
  <rect width="82.362862" height="19.339346" ry="0" x="2.1071906" y="31.002447" style="fill:#ffffff" />
  <rect width="84.387016" height="4.5047002" rx="0" ry="2.2523501" x="0.90767825" y="36.070976" style="fill:#ff0000" />
  <rect width="83.980484" height="35.072308" rx="0" ry="17.536154" x="1.424625" y="16.12159" style="fill:none;stroke:#000000;stroke-width:2.85" />
  <path d="M 1.4117247,17.137736 1.4117247,33.950236 84.911725,33.950236 84.911725,17.137736 1.4117247,17.137736 z M 8.9429747,19.168986 15.974225,19.168986 C 18.999354,19.168986 21.442975,21.612608 21.442975,24.637736 21.442975,27.662865 18.999353,30.106486 15.974225,30.106486 L 8.9429747,30.106486 C 5.9178467,30.106487 3.4742247,27.662864 3.4742247,24.637736 3.4742247,21.612608 5.9178467,19.168986 8.9429747,19.168986 z M 29.817975,19.168986 36.880475,19.168986 C 39.905604,19.168986 42.349225,21.612608 42.349225,24.637736 42.349225,27.662865 39.905603,30.106486 36.880475,30.106486 L 29.817975,30.106486 C 26.792846,30.106487 24.349225,27.662864 24.349225,24.637736 24.349225,21.612608 26.792847,19.168986 29.817975,19.168986 z M 50.724225,19.168986 57.755475,19.168986 C 60.780604,19.168986 63.224225,21.612608 63.224225,24.637736 63.224229,27.662865 60.780603,30.106486 57.755475,30.106486 L 50.724225,30.106486 C 47.699096,30.106487 45.255475,27.662864 45.255475,24.637736 45.255475,21.612608 47.699097,19.168986 50.724225,19.168986 z M 71.599225,19.168986 78.661725,19.168986 C 81.686854,19.168986 84.130475,21.612608 84.130475,24.637736 84.130471,27.662865 81.686853,30.106486 78.661725,30.106486 L 71.599225,30.106486 C 68.574099,30.106487 66.130475,27.662864 66.130475,24.637736 66.130475,21.612608 68.574097,19.168986 71.599225,19.168986 z" />
  <path d="M 7.03,20.8022 A 2.56,2.56 0 1 1 1.92,20.8022 2.56,2.56 0 1 1 7.03,20.8022 z" transform="matrix(2.84925,0,0,2.84925,90.613171,-7.1086257)" />
  <path d="M 7.03,20.8022 A 2.56,2.56 0 1 1 1.92,20.8022 2.56,2.56 0 1 1 7.03,20.8022 z" transform="matrix(2.84925,0,0,2.84925,105.40209,-7.1086257)" />
  <path d="M 7.03,20.8022 A 2.56,2.56 0 1 1 1.92,20.8022 2.56,2.56 0 1 1 7.03,20.8022 z" transform="matrix(2.84925,0,0,2.84925,141.12317,-7.1086257)" />
  <path d="M 7.03,20.8022 A 2.56,2.56 0 1 1 1.92,20.8022 2.56,2.56 0 1 1 7.03,20.8022 z" transform="matrix(2.84925,0,0,2.84925,155.91192,-7.1086257)" />
  <path d="M 94.025955,31.002448 185.64904,32.583462 191.23927,39.661397 176.38881,50.341794 94.025955,50.341794 94.025955,31.002448 z" style="fill:#ffffff" />
  <path d="M 93.349225,17.137736 93.349225,33.950236 185.03672,33.950236 167.97422,17.137736 93.349225,17.137736 z M 100.84922,19.168986 107.91172,19.168986 C 110.93685,19.168986 113.38047,21.612608 113.38047,24.637736 113.38047,27.662865 110.93685,30.106486 107.91172,30.106486 L 100.84922,30.106486 C 97.824095,30.106487 95.380475,27.662864 95.380475,24.637736 95.380475,21.612608 97.824095,19.168986 100.84922,19.168986 z M 121.75547,19.168986 128.78672,19.168986 C 131.81185,19.168986 134.25547,21.612608 134.25547,24.637736 134.25547,27.662865 131.81185,30.106486 128.78672,30.106486 L 121.75547,30.106486 C 118.73034,30.106487 116.28672,27.662864 116.28672,24.637736 116.28672,21.612608 118.73034,19.168986 121.75547,19.168986 z M 142.63047,19.168986 149.69297,19.168986 C 152.71809,19.168986 155.16172,21.612608 155.16172,24.637736 155.16172,27.662865 152.7181,30.106486 149.69297,30.106486 L 142.63047,30.106486 C 139.60534,30.106487 137.16172,27.662864 137.16172,24.637736 137.16172,21.612608 139.60534,19.168986 142.63047,19.168986 z M 170.00547,19.512736 179.56797,28.825236 170.00547,28.825236 170.00547,19.512736 z" />
  <rect width="97.583275" height="4.5047002" rx="0" ry="2.2523501" x="92.826447" y="36.070976" style="fill:#ff0000" />
  <path d="M 179.57412,28.831722 170.01821,28.831722 170.01821,19.503331 179.57412,28.831722 z" style="fill:url(#linearGradient3345);stroke:none" />
  <path d="M 93.343395,16.121589 166.17531,16.121589 192.11279,39.070199 177.32387,51.193898 93.343395,51.193898 93.343395,16.121589 z" style="fill:none;stroke:#000000;stroke-width:2.85" />
  <path d="M 152.72656,14.620883 143.62569,6.4301008 143.62569,1.424625 151.13391,1.424625" style="fill:none;stroke:#000000;stroke-width:2.85" />
  <rect width="17.974216" height="10.921041" ry="5.4605207" x="3.472321" y="19.171316" style="fill:url(#linearGradient3416)" />
  <rect width="17.974216" height="10.921041" ry="5.4605207" x="24.363308" y="19.171316" style="fill:url(#linearGradient3421)" />
  <rect width="17.974216" height="10.921041" ry="5.4605207" x="45.254299" y="19.171316" style="fill:url(#linearGradient3425)" />
  <rect width="17.974216" height="10.921041" ry="5.4605207" x="66.145287" y="19.171316" style="fill:url(#linearGradient3429)" />
  <rect width="17.974241" height="10.921057" ry="5.4605284" x="95.390915" y="19.171345" style="fill:url(#linearGradient56)" />
  <rect width="17.974241" height="10.921057" ry="5.4605284" x="116.28194" y="19.171345" style="fill:url(#linearGradient53)" />
  <rect width="17.974241" height="10.921057" ry="5.4605284" x="137.17296" y="19.171345" style="fill:url(#linearGradient50)" />
 </svg>