<svg xmlns="http://www.w3.org/2000/svg" xmlns:xlink="http://www.w3.org/1999/xlink" width="59" height="60" version="1.1" viewBox="0 0 59 60"><title>noun_Calendar_545384</title><desc>Created with Sketch.</desc><g id="Page-1" fill="none" fill-rule="evenodd" stroke="none" stroke-width="1"><g id="Past-Events" fill="#310967" transform="translate(-375.000000, -419.000000)"><g id="Group" transform="translate(295.000000, 354.000000)"><g id="noun_Calendar_545384" transform="translate(80.000000, 65.000000)"><path id="Path" d="M19,14.9372385 L19,2.06276151 C19,0.924686192 18.1034483,0 17,0 C15.8965517,0 15,0.924686192 15,2.06276151 L15,14.9372385 C15,16.0753138 15.8965517,17 17,17 C18.1034483,17 19,16.0753138 19,14.9372385 Z"/><path id="Path" d="M43,14.9372385 L43,2.06276151 C43,0.924686192 42.1034483,0 41,0 C39.8965517,0 39,0.924686192 39,2.06276151 L39,14.9372385 C39,16.0753138 39.8965517,17 41,17 C42.1034483,17 43,16.0753138 43,14.9372385 Z"/><path id="Shape" fill-rule="nonzero" d="M15.5369458,30 C11.3990148,30 8,33.4158416 8,37.5 C8,41.5841584 11.3990148,45 15.5369458,45 C19.6748768,45 23,41.7326733 23,37.5742574 C23,33.4158416 19.6748768,30 15.5369458,30 Z M15.5369458,40.7673267 C13.7635468,40.7673267 12.3596059,39.2821782 12.3596059,37.5 C12.3596059,35.7178218 13.8374384,34.2326733 15.5369458,34.2326733 C17.2364532,34.2326733 18.7142857,35.7178218 18.7142857,37.5 C18.7142857,39.2821782 17.3103448,40.7673267 15.5369458,40.7673267 Z"/><path id="Path" d="M18.8,48 L12.2,48 C10.9862069,48 10,48.8965517 10,50 C10,51.1034483 10.9862069,52 12.2,52 L18.8,52 C20.0137931,52 21,51.1034483 21,50 C21,48.8965517 20.0137931,48 18.8,48 Z"/><path id="Path" d="M33.8,48 L27.2,48 C25.9862069,48 25,48.8965517 25,50 C25,51.1034483 25.9862069,52 27.2,52 L33.8,52 C35.0137931,52 36,51.1034483 36,50 C36,48.8965517 35.0137931,48 33.8,48 Z"/><path id="Path" d="M33.8,35 L27.2,35 C25.9862069,35 25,35.8965517 25,37 C25,38.1034483 25.9862069,39 27.2,39 L33.8,39 C35.0137931,39 36,38.1034483 36,37 C36,35.8965517 35.0137931,35 33.8,35 Z"/><path id="Path" d="M48.8,48 L42.2,48 C40.9862069,48 40,48.8965517 40,50 C40,51.1034483 40.9862069,52 42.2,52 L48.8,52 C50.0137931,52 51,51.1034483 51,50 C51,48.8965517 50.0137931,48 48.8,48 Z"/><path id="Path" d="M48.8,35 L42.2,35 C40.9862069,35 40,35.8965517 40,37 C40,38.1034483 40.9862069,39 42.2,39 L48.8,39 C50.0137931,39 51,38.1034483 51,37 C51,35.8965517 50.0137931,35 48.8,35 Z"/><path id="Shape" fill-rule="nonzero" d="M51.2330918,8 L47.5277778,8 C46.3876812,8 45.4613527,8.92349727 45.4613527,10.0601093 C45.4613527,11.1967213 46.3876812,12.1202186 47.5277778,12.1202186 L51.2330918,12.1202186 C53.2282609,12.1202186 54.8671498,13.7540984 54.8671498,15.7431694 L54.8671498,22.6338798 L4.13285024,22.6338798 L4.13285024,15.7431694 C4.13285024,13.7540984 5.77173913,12.1202186 7.76690821,12.1202186 L11.4722222,12.1202186 C12.6123188,12.1202186 13.5386473,11.1967213 13.5386473,10.0601093 C13.5386473,8.92349727 12.6123188,8 11.4722222,8 L7.76690821,8 C3.49154589,8 0,11.4808743 0,15.7431694 L0,52.2568306 C0,56.5191257 3.49154589,60 7.76690821,60 L51.2330918,60 C55.5084541,60 59,56.5191257 59,52.2568306 L59,15.7431694 C59,11.4808743 55.5084541,8 51.2330918,8 Z M51.2330918,55.8797814 L7.76690821,55.8797814 C5.77173913,55.8797814 4.13285024,54.2459016 4.13285024,52.2568306 L4.13285024,26.8251366 L54.8671498,26.8251366 L54.8671498,52.2568306 C54.8671498,54.2459016 53.2282609,55.8797814 51.2330918,55.8797814 Z"/><path id="Path" d="M34.9086538,12 C36.0625,12 37,11.1034483 37,10 C37,8.89655172 36.0625,8 34.9086538,8 L24.0913462,8 C22.9375,8 22,8.89655172 22,10 C22,11.1034483 22.9375,12 24.0913462,12 L34.9086538,12 Z"/></g></g></g></g></svg>