<svg xmlns="http://www.w3.org/2000/svg" xmlns:xlink="http://www.w3.org/1999/xlink" width="193.537" height="59.443" version="1.1"><defs><linearGradient id="linearGradient3238"><stop id="stop3240" offset="0" stop-color="#6a93c5" stop-opacity=".478"/><stop id="stop3242" offset="1" stop-color="#fff" stop-opacity=".625"/></linearGradient><linearGradient id="linearGradient3345" x1="59.171" x2="62.525" y1="-11.099" y2="-11.099" gradientTransform="matrix(2.84925,0,0,2.84925,1.4246247,55.791886)" gradientUnits="userSpaceOnUse" xlink:href="#linearGradient3238"/><linearGradient id="linearGradient3416" x1=".719" x2="7.027" y1="9.064" y2="9.064" gradientTransform="matrix(2.84925,0,0,2.84925,1.4246247,-1.19306)" gradientUnits="userSpaceOnUse" xlink:href="#linearGradient3238"/><linearGradient id="linearGradient3421" x1="8.051" x2="14.359" y1="9.064" y2="9.064" gradientTransform="matrix(2.84925,0,0,2.84925,1.4246247,-1.19306)" gradientUnits="userSpaceOnUse" xlink:href="#linearGradient3238"/><linearGradient id="linearGradient3425" x1="15.383" x2="21.691" y1="9.064" y2="9.064" gradientTransform="matrix(2.84925,0,0,2.84925,1.4246247,-1.19306)" gradientUnits="userSpaceOnUse" xlink:href="#linearGradient3238"/><linearGradient id="linearGradient3429" x1="22.715" x2="29.023" y1="9.064" y2="9.064" gradientTransform="matrix(2.84925,0,0,2.84925,1.4246247,-1.19306)" gradientUnits="userSpaceOnUse" xlink:href="#linearGradient3238"/><linearGradient id="linearGradient3443" x1=".719" x2="7.027" y1="9.064" y2="9.064" gradientUnits="userSpaceOnUse" xlink:href="#linearGradient3238"/><linearGradient id="linearGradient3445" x1="8.051" x2="14.359" y1="9.064" y2="9.064" gradientUnits="userSpaceOnUse" xlink:href="#linearGradient3238"/><linearGradient id="linearGradient3447" x1="15.383" x2="21.691" y1="9.064" y2="9.064" gradientUnits="userSpaceOnUse" xlink:href="#linearGradient3238"/><linearGradient id="linearGradient50" x1="15.383" x2="21.691" y1="9.064" y2="9.064" gradientTransform="matrix(2.84925,0,0,2.84925,93.343225,-1.19306)" gradientUnits="userSpaceOnUse" xlink:href="#linearGradient3238"/><linearGradient id="linearGradient53" x1="8.051" x2="14.359" y1="9.064" y2="9.064" gradientTransform="matrix(2.84925,0,0,2.84925,93.343225,-1.19306)" gradientUnits="userSpaceOnUse" xlink:href="#linearGradient3238"/><linearGradient id="linearGradient56" x1=".719" x2="7.027" y1="9.064" y2="9.064" gradientTransform="matrix(2.84925,0,0,2.84925,93.343225,-1.19306)" gradientUnits="userSpaceOnUse" xlink:href="#linearGradient3238"/></defs><rect width="11.831" height="4.095" x="83.787" y="44.758" ry="0"/><rect width="14.789" height="3.185" x="142.716" y="12.678" ry="0"/><path d="M 7.03,20.8022 A 2.56,2.56 0 1 1 1.92,20.8022 2.56,2.56 0 1 1 7.03,20.8022 z" transform="matrix(2.84925,0,0,2.84925,-1.3056391,-7.1086257)"/><path d="M 7.03,20.8022 A 2.56,2.56 0 1 1 1.92,20.8022 2.56,2.56 0 1 1 7.03,20.8022 z" transform="matrix(2.84925,0,0,2.84925,13.483288,-7.1086257)"/><path d="M 7.03,20.8022 A 2.56,2.56 0 1 1 1.92,20.8022 2.56,2.56 0 1 1 7.03,20.8022 z" transform="matrix(2.84925,0,0,2.84925,49.204364,-7.1086257)"/><path d="M 7.03,20.8022 A 2.56,2.56 0 1 1 1.92,20.8022 2.56,2.56 0 1 1 7.03,20.8022 z" transform="matrix(2.84925,0,0,2.84925,63.993111,-7.1086257)"/><rect width="82.363" height="19.339" x="2.107" y="31.002" fill="#fff" ry="0"/><rect width="84.387" height="4.505" x=".908" y="36.071" fill="red" rx="0" ry="2.252"/><rect width="83.98" height="35.072" x="1.425" y="16.122" fill="none" stroke="#000" stroke-width="2.85" rx="0" ry="17.536"/><path d="M 1.4117247,17.137736 1.4117247,33.950236 84.911725,33.950236 84.911725,17.137736 1.4117247,17.137736 z M 8.9429747,19.168986 15.974225,19.168986 C 18.999354,19.168986 21.442975,21.612608 21.442975,24.637736 21.442975,27.662865 18.999353,30.106486 15.974225,30.106486 L 8.9429747,30.106486 C 5.9178467,30.106487 3.4742247,27.662864 3.4742247,24.637736 3.4742247,21.612608 5.9178467,19.168986 8.9429747,19.168986 z M 29.817975,19.168986 36.880475,19.168986 C 39.905604,19.168986 42.349225,21.612608 42.349225,24.637736 42.349225,27.662865 39.905603,30.106486 36.880475,30.106486 L 29.817975,30.106486 C 26.792846,30.106487 24.349225,27.662864 24.349225,24.637736 24.349225,21.612608 26.792847,19.168986 29.817975,19.168986 z M 50.724225,19.168986 57.755475,19.168986 C 60.780604,19.168986 63.224225,21.612608 63.224225,24.637736 63.224229,27.662865 60.780603,30.106486 57.755475,30.106486 L 50.724225,30.106486 C 47.699096,30.106487 45.255475,27.662864 45.255475,24.637736 45.255475,21.612608 47.699097,19.168986 50.724225,19.168986 z M 71.599225,19.168986 78.661725,19.168986 C 81.686854,19.168986 84.130475,21.612608 84.130475,24.637736 84.130471,27.662865 81.686853,30.106486 78.661725,30.106486 L 71.599225,30.106486 C 68.574099,30.106487 66.130475,27.662864 66.130475,24.637736 66.130475,21.612608 68.574097,19.168986 71.599225,19.168986 z"/><path d="M 7.03,20.8022 A 2.56,2.56 0 1 1 1.92,20.8022 2.56,2.56 0 1 1 7.03,20.8022 z" transform="matrix(2.84925,0,0,2.84925,90.613171,-7.1086257)"/><path d="M 7.03,20.8022 A 2.56,2.56 0 1 1 1.92,20.8022 2.56,2.56 0 1 1 7.03,20.8022 z" transform="matrix(2.84925,0,0,2.84925,105.40209,-7.1086257)"/><path d="M 7.03,20.8022 A 2.56,2.56 0 1 1 1.92,20.8022 2.56,2.56 0 1 1 7.03,20.8022 z" transform="matrix(2.84925,0,0,2.84925,141.12317,-7.1086257)"/><path d="M 7.03,20.8022 A 2.56,2.56 0 1 1 1.92,20.8022 2.56,2.56 0 1 1 7.03,20.8022 z" transform="matrix(2.84925,0,0,2.84925,155.91192,-7.1086257)"/><path fill="#fff" d="M 94.025955,31.002448 185.64904,32.583462 191.23927,39.661397 176.38881,50.341794 94.025955,50.341794 94.025955,31.002448 z"/><path d="M 93.349225,17.137736 93.349225,33.950236 185.03672,33.950236 167.97422,17.137736 93.349225,17.137736 z M 100.84922,19.168986 107.91172,19.168986 C 110.93685,19.168986 113.38047,21.612608 113.38047,24.637736 113.38047,27.662865 110.93685,30.106486 107.91172,30.106486 L 100.84922,30.106486 C 97.824095,30.106487 95.380475,27.662864 95.380475,24.637736 95.380475,21.612608 97.824095,19.168986 100.84922,19.168986 z M 121.75547,19.168986 128.78672,19.168986 C 131.81185,19.168986 134.25547,21.612608 134.25547,24.637736 134.25547,27.662865 131.81185,30.106486 128.78672,30.106486 L 121.75547,30.106486 C 118.73034,30.106487 116.28672,27.662864 116.28672,24.637736 116.28672,21.612608 118.73034,19.168986 121.75547,19.168986 z M 142.63047,19.168986 149.69297,19.168986 C 152.71809,19.168986 155.16172,21.612608 155.16172,24.637736 155.16172,27.662865 152.7181,30.106486 149.69297,30.106486 L 142.63047,30.106486 C 139.60534,30.106487 137.16172,27.662864 137.16172,24.637736 137.16172,21.612608 139.60534,19.168986 142.63047,19.168986 z M 170.00547,19.512736 179.56797,28.825236 170.00547,28.825236 170.00547,19.512736 z"/><rect width="97.583" height="4.505" x="92.826" y="36.071" fill="red" rx="0" ry="2.252"/><path fill="url(#linearGradient3345)" stroke="none" d="M 179.57412,28.831722 170.01821,28.831722 170.01821,19.503331 179.57412,28.831722 z"/><path fill="none" stroke="#000" stroke-width="2.85" d="M 93.343395,16.121589 166.17531,16.121589 192.11279,39.070199 177.32387,51.193898 93.343395,51.193898 93.343395,16.121589 z"/><path fill="none" stroke="#000" stroke-width="2.85" d="M 152.72656,14.620883 143.62569,6.4301008 143.62569,1.424625 151.13391,1.424625"/><rect width="17.974" height="10.921" x="3.472" y="19.171" fill="url(#linearGradient3416)" ry="5.461"/><rect width="17.974" height="10.921" x="24.363" y="19.171" fill="url(#linearGradient3421)" ry="5.461"/><rect width="17.974" height="10.921" x="45.254" y="19.171" fill="url(#linearGradient3425)" ry="5.461"/><rect width="17.974" height="10.921" x="66.145" y="19.171" fill="url(#linearGradient3429)" ry="5.461"/><rect width="17.974" height="10.921" x="95.391" y="19.171" fill="url(#linearGradient56)" ry="5.461"/><rect width="17.974" height="10.921" x="116.282" y="19.171" fill="url(#linearGradient53)" ry="5.461"/><rect width="17.974" height="10.921" x="137.173" y="19.171" fill="url(#linearGradient50)" ry="5.461"/></svg>